<svg
  aria-hidden="true"
  style="position:absolute;width:0;height:0"
  xmlns="http://www.w3.org/2000/svg"
  overflow="hidden"
><defs>
<symbol id="movie" viewBox="0 0 32 32">
<path
        d="M27 2h-22c-1.657 0-3 1.343-3 3v0 22c0 1.657 1.343 3 3 3v0h22c1.657 0 3-1.343 3-3v0-22c0-1.657-1.343-3-3-3v0zM8 15h-4v-4h4zM4 17h4v4h-4zM10 4h12v24h-12zM24 11h4v4h-4zM24 17h4v4h-4zM27 4c0.552 0 1 0.448 1 1v0 4h-4v-5zM5 4h3v5h-4v-4c0-0.552 0.448-1 1-1v0zM5 28c-0.552 0-1-0.448-1-1v0-4h4v5zM27 28h-3v-5h4v4c0 0.552-0.448 1-1 1v0z"
      />
</symbol>
</defs>
</svg>
